<?xml version="1.0" standalone="no"?>
<!DOCTYPE svg PUBLIC "-//W3C//DTD SVG 20010904//EN"
 "http://www.w3.org/TR/2001/REC-SVG-20010904/DTD/svg10.dtd">
<svg version="1.0" xmlns="http://www.w3.org/2000/svg"
 width="361.000000pt" height="313.000000pt" viewBox="0 0 361.000000 313.000000"
 preserveAspectRatio="xMidYMid meet">

<g transform="translate(0.000000,313.000000) scale(0.100000,-0.100000)"
fill="#000000" stroke="none">
<path d="M0 1580 l0 -1550 1805 0 1805 0 0 1550 0 1550 -1805 0 -1805 0 0
-1550z m3580 1165 l0 -335 -195 0 c-107 0 -195 3 -195 8 0 4 -7 39 -15 77 -20
97 -71 226 -107 269 -52 64 -98 43 -179 -81 -53 -81 -87 -162 -96 -229 l-6
-44 -383 0 -384 0 0 70 0 70 -985 0 -985 0 0 265 0 265 1765 0 1765 0 0 -335z
m-492 -188 c24 -26 42 -76 42 -119 l0 -28 -125 0 -125 0 15 38 c47 111 141
164 193 109z m-304 -319 c3 -79 10 -163 15 -187 8 -38 6 -45 -13 -61 -202
-168 -280 -246 -332 -331 l-37 -59 -203 0 -204 0 0 95 0 95 -720 0 -720 0 0
180 0 180 725 0 725 0 0 115 0 115 378 0 379 0 7 -142z m325 115 c-21 -55
-106 -170 -177 -240 -41 -40 -79 -73 -84 -73 -14 0 -4 265 12 308 l12 32 124
0 124 0 -11 -27z m471 -363 l0 -390 -333 0 -334 0 -16 98 -17 97 55 48 c142
126 225 287 250 490 l6 47 195 0 194 0 0 -390z m-710 -367 c0 -23 -2 -23 -112
-23 l-111 0 24 26 c13 14 58 53 99 87 l75 60 12 -64 c7 -35 12 -74 13 -86z
m-475 -70 c-45 -112 -49 -130 -49 -243 0 -91 4 -130 22 -186 44 -143 143 -251
296 -325 l80 -39 -367 0 -367 0 0 95 0 95 -720 0 -720 0 0 210 0 210 720 0
720 0 0 100 0 100 196 0 c183 0 196 -1 189 -17z m489 -9 c4 -15 6 -27 4 -28
-2 -1 -28 -15 -59 -29 -69 -33 -132 -99 -166 -174 -22 -47 -25 -65 -21 -127 3
-39 13 -86 22 -104 23 -45 80 -107 122 -132 42 -27 65 -16 28 13 -15 11 -40
41 -55 66 -59 92 -27 216 67 261 59 29 91 27 98 -7 12 -57 76 -451 76 -466 0
-23 -98 -33 -185 -18 -144 24 -286 126 -343 248 -23 50 -27 70 -27 154 0 90 2
99 38 171 20 42 57 103 82 137 l45 61 134 0 134 0 6 -26z m696 -379 l0 -405
-265 0 c-146 0 -265 2 -265 5 0 2 23 16 51 31 73 36 144 112 182 192 30 62 32
75 31 167 0 130 -25 197 -98 271 -58 58 -110 79 -221 91 -62 7 -70 10 -73 31
l-3 22 330 0 331 0 0 -405z m-527 144 c21 -6 56 -26 77 -45 115 -104 96 -338
-33 -418 -26 -16 -50 -26 -54 -23 -5 6 -82 460 -83 490 0 10 49 9 93 -4z m-18
-701 c25 -174 25 -262 -3 -314 -46 -90 -155 -142 -255 -124 -52 10 -104 37
-92 48 3 3 27 18 53 32 52 28 92 86 92 135 0 45 -32 97 -76 122 -99 57 -211
-3 -228 -121 -15 -95 30 -173 129 -224 73 -37 200 -43 273 -12 57 25 125 92
148 145 24 57 13 259 -21 413 l-5 22 265 0 265 0 0 -325 0 -325 -1765 0 -1765
0 0 245 0 245 980 0 980 0 0 80 0 80 503 0 503 0 19 -122z"/>
</g>
</svg>
